<?xml version="1.0" encoding="utf-8"?><svg viewBox="0 0 502.66 502.66" xmlns="http://www.w3.org/2000/svg" xmlns:xlink="http://www.w3.org/1999/xlink"><style>:root>svg{display:none}:root>svg:target{display:block}</style><svg viewBox="0 0 502.664 502.664" id="icon" xmlns="http://www.w3.org/2000/svg"><path d="M153.821 358.226L0 274.337v-46.463l153.821-83.414v54.574L46.636 250.523l107.185 53.431v54.272zm26.273 29.358L282.103 115.08h32.227L212.084 387.584h-31.99zm168.749-29.358v-54.272l107.164-52.999-107.164-52.59v-53.927l153.821 83.522v46.183l-153.821 84.083z"/></svg><svg viewBox="0 0 24 24" id="ok" xmlns="http://www.w3.org/2000/svg"><g clip-path="url(#ba)"><path d="M10.234 8.146c0 .947.823 1.714 1.838 1.714 1.016 0 1.84-.767 1.84-1.714 0-.946-.824-1.714-1.84-1.714-1.015 0-1.838.768-1.838 1.714z"/><path fill-rule="evenodd" clip-rule="evenodd" d="M8 2a6 6 0 00-6 6v8a6 6 0 006 6h8a6 6 0 006-6V8a6 6 0 00-6-6H8zm-.376 6.146C7.624 5.856 9.616 4 12.072 4c2.457 0 4.449 1.856 4.449 4.146s-1.992 4.146-4.449 4.146c-2.456 0-4.448-1.856-4.448-4.146zm8.923 6.28c-.056.041-1.123.828-2.904 1.166l2.688 2.483c.472.44.473 1.154.001 1.594a1.273 1.273 0 01-1.71.001l-2.61-2.368-2.37 2.353a1.25 1.25 0 01-.87.345c-.303 0-.606-.105-.84-.316A1.074 1.074 0 017.9 18.09l2.55-2.485c-1.83-.33-2.94-1.137-2.998-1.18-.521-.39-.605-1.099-.187-1.585.418-.485 1.179-.563 1.7-.174.011.008 1.173.822 3.046.823 1.873 0 3.01-.815 3.022-.823.521-.39 1.282-.311 1.7.174.418.486.334 1.196-.187 1.585z"/></g><defs><clipPath id="ba"><path d="M0 0h24v24H0z"/></clipPath></defs></svg><svg viewBox="0 0 3 13" id="tooltip-icon" xmlns="http://www.w3.org/2000/svg"><path d="M1.549 1.87c-.594 0-.89-.28-.89-.84 0-.55.296-.824.89-.824.593 0 .89.275.89.824 0 .56-.297.84-.89.84zm0 10.214c-.448 0-.672-.246-.672-.74v-6.87c0-.482.224-.723.672-.723.459 0 .689.24.689.722v6.872c0 .492-.23.739-.69.739z"/></svg><svg viewBox="0 0 24 24" id="wc" xmlns="http://www.w3.org/2000/svg"><path fill-rule="evenodd" clip-rule="evenodd" d="M2 8a6 6 0 016-6h8a6 6 0 016 6v8a6 6 0 01-6 6H8a6 6 0 01-6-6V8zm15.344 5.447c.37.33.74.662 1.068 1.033.13.146.255.295.365.455.058.083.112.169.161.258a.605.605 0 01.035.545.428.428 0 01-.367.254h-2.185c-.564.044-1.013-.171-1.392-.535-.302-.29-.582-.599-.873-.898a2.018 2.018 0 00-.394-.33c-.166-.102-.32-.13-.453-.083a.526.526 0 00-.274.25c-.174.298-.214.628-.23.96-.024.486-.18.613-.696.636-1.105.049-2.152-.11-3.127-.635-.859-.462-1.524-1.115-2.104-1.855C5.75 12.06 4.886 10.477 4.11 8.849c-.174-.367-.046-.562.383-.57a65.078 65.078 0 012.139 0c.29.004.482.16.594.418.385.894.857 1.744 1.45 2.532l.109.143c.125.16.261.31.438.425.253.163.446.11.566-.157.076-.17.109-.35.126-.532.056-.62.063-1.242-.035-1.86-.061-.388-.293-.638-.702-.71-.209-.038-.178-.111-.076-.224.175-.193.34-.314.67-.314h2.469c.388.072.476.236.529.606l.002 2.585c-.005.143.076.567.348.66.218.068.362-.097.493-.227.592-.592 1.014-1.291 1.391-2.014.167-.319.311-.65.45-.98a.605.605 0 01.193-.262.58.58 0 01.366-.098l2.377.002c.07 0 .14 0 .21.012.211.034.341.095.4.2.051.093.045.221-.014.395-.187.557-.545 1.024-.901 1.489l-.043.055c-.397.518-.82 1.017-1.214 1.537-.361.475-.333.714.116 1.126.132.122.266.242.4.361z"/></svg><svg viewBox="0 0 24 24" id="youtube" xmlns="http://www.w3.org/2000/svg"><g clip-path="url(#ea)"><path d="M21.543 6.498C22 8.28 22 12 22 12s0 3.72-.457 5.502c-.254.985-.997 1.76-1.938 2.022C17.896 20 12 20 12 20s-5.893 0-7.605-.476c-.945-.266-1.687-1.04-1.938-2.022C2 15.72 2 12 2 12s0-3.72.457-5.502c.254-.985.997-1.76 1.938-2.022C6.107 4 12 4 12 4s5.896 0 7.605.476c.945.266 1.687 1.04 1.938 2.022zM10 15.5l6-3.5-6-3.5v7z"/></g><defs><clipPath id="ea"><path d="M0 0h24v24H0z"/></clipPath></defs></svg></svg>